<svg width="100" height="100" viewbox="0,0,100,100" version="1.1" xmlns="http://www.w3.org/2000/svg"><circle cx="50" cy="50" r="49.5" stroke-width="0.5" stroke="#000000" fill="#ffffff"></circle><path d="M49.5 98 L50.5 98 L50.5 95 L49.5 95 Z" /><path d="M44.485 97.685 L45.48 97.789 L45.793 94.806 L44.799 94.701 Z" /><path d="M39.531 96.847 L40.509 97.055 L41.133 94.121 L40.155 93.913 Z" /><path d="M34.692 95.496 L35.643 95.805 L36.57 92.952 L35.619 92.643 Z" /><path d="M30.02 93.647 L30.933 94.054 L32.154 91.313 L31.24 90.906 Z" /><path d="M25.567 91.319 L26.433 91.819 L27.933 89.221 L27.067 88.721 Z" /><path d="M21.382 88.539 L22.191 89.127 L23.954 86.7 L23.145 86.112 Z" /><path d="M17.51 85.336 L18.253 86.006 L20.261 83.776 L19.518 83.107 Z" /><path d="M13.994 81.747 L14.664 82.49 L16.893 80.482 L16.224 79.739 Z" /><path d="M10.873 77.809 L11.461 78.618 L13.888 76.855 L13.3 76.046 Z" /><path d="M8.181 73.567 L8.681 74.433 L11.279 72.933 L10.779 72.067 Z" /><path d="M5.946 69.067 L6.353 69.98 L9.094 68.76 L8.687 67.846 Z" /><path d="M4.195 64.357 L4.504 65.308 L7.357 64.381 L7.048 63.43 Z" /><path d="M2.945 59.491 L3.153 60.469 L6.087 59.845 L5.879 58.867 Z" /><path d="M2.211 54.52 L2.315 55.515 L5.299 55.201 L5.194 54.207 Z" /><path d="M2 49.5 L2 50.5 L5 50.5 L5 49.5 Z" /><path d="M2.315 44.485 L2.211 45.48 L5.194 45.793 L5.299 44.799 Z" /><path d="M3.153 39.531 L2.945 40.509 L5.879 41.133 L6.087 40.155 Z" /><path d="M4.504 34.692 L4.195 35.643 L7.048 36.57 L7.357 35.619 Z" /><path d="M6.353 30.02 L5.946 30.933 L8.687 32.154 L9.094 31.24 Z" /><path d="M8.681 25.567 L8.181 26.433 L10.779 27.933 L11.279 27.067 Z" /><path d="M11.461 21.382 L10.873 22.191 L13.3 23.954 L13.888 23.145 Z" /><path d="M14.664 17.51 L13.994 18.253 L16.224 20.261 L16.893 19.518 Z" /><path d="M18.253 13.994 L17.51 14.664 L19.518 16.893 L20.261 16.224 Z" /><path d="M22.191 10.873 L21.382 11.461 L23.145 13.888 L23.954 13.3 Z" /><path d="M26.433 8.181 L25.567 8.681 L27.067 11.279 L27.933 10.779 Z" /><path d="M30.933 5.946 L30.02 6.353 L31.24 9.094 L32.154 8.687 Z" /><path d="M35.643 4.195 L34.692 4.504 L35.619 7.357 L36.57 7.048 Z" /><path d="M40.509 2.945 L39.531 3.153 L40.155 6.087 L41.133 5.879 Z" /><path d="M45.48 2.211 L44.485 2.315 L44.799 5.299 L45.793 5.194 Z" /><path d="M50.5 2 L49.5 2 L49.5 5 L50.5 5 Z" /><path d="M55.515 2.315 L54.52 2.211 L54.207 5.194 L55.201 5.299 Z" /><path d="M60.469 3.153 L59.491 2.945 L58.867 5.879 L59.845 6.087 Z" /><path d="M65.308 4.504 L64.357 4.195 L63.43 7.048 L64.381 7.357 Z" /><path d="M69.98 6.353 L69.067 5.946 L67.846 8.687 L68.76 9.094 Z" /><path d="M74.433 8.681 L73.567 8.181 L72.067 10.779 L72.933 11.279 Z" /><path d="M78.618 11.461 L77.809 10.873 L76.046 13.3 L76.855 13.888 Z" /><path d="M82.49 14.664 L81.747 13.994 L79.739 16.224 L80.482 16.893 Z" /><path d="M86.006 18.253 L85.336 17.51 L83.107 19.518 L83.776 20.261 Z" /><path d="M89.127 22.191 L88.539 21.382 L86.112 23.145 L86.7 23.954 Z" /><path d="M91.819 26.433 L91.319 25.567 L88.721 27.067 L89.221 27.933 Z" /><path d="M94.054 30.933 L93.647 30.02 L90.906 31.24 L91.313 32.154 Z" /><path d="M95.805 35.643 L95.496 34.692 L92.643 35.619 L92.952 36.57 Z" /><path d="M97.055 40.509 L96.847 39.531 L93.913 40.155 L94.121 41.133 Z" /><path d="M97.789 45.48 L97.685 44.485 L94.701 44.799 L94.806 45.793 Z" /><path d="M98 50.5 L98 49.5 L95 49.5 L95 50.5 Z" /><path d="M97.685 55.515 L97.789 54.52 L94.806 54.207 L94.701 55.201 Z" /><path d="M96.847 60.469 L97.055 59.491 L94.121 58.867 L93.913 59.845 Z" /><path d="M95.496 65.308 L95.805 64.357 L92.952 63.43 L92.643 64.381 Z" /><path d="M93.647 69.98 L94.054 69.067 L91.313 67.846 L90.906 68.76 Z" /><path d="M91.319 74.433 L91.819 73.567 L89.221 72.067 L88.721 72.933 Z" /><path d="M88.539 78.618 L89.127 77.809 L86.7 76.046 L86.112 76.855 Z" /><path d="M85.336 82.49 L86.006 81.747 L83.776 79.739 L83.107 80.482 Z" /><path d="M81.747 86.006 L82.49 85.336 L80.482 83.107 L79.739 83.776 Z" /><path d="M77.809 89.127 L78.618 88.539 L76.855 86.112 L76.046 86.7 Z" /><path d="M73.567 91.819 L74.433 91.319 L72.933 88.721 L72.067 89.221 Z" /><path d="M69.067 94.054 L69.98 93.647 L68.76 90.906 L67.846 91.313 Z" /><path d="M64.357 95.805 L65.308 95.496 L64.381 92.643 L63.43 92.952 Z" /><path d="M59.491 97.055 L60.469 96.847 L59.845 93.913 L58.867 94.121 Z" /><path d="M54.52 97.789 L55.515 97.685 L55.201 94.701 L54.207 94.806 Z" /><path d="M49 98 L51 98 L51 88 L49 88 Z" /><path d="M25.134 91.069 L26.866 92.069 L31.866 83.409 L30.134 82.409 Z" /><path d="M7.931 73.134 L8.931 74.866 L17.591 69.866 L16.591 68.134 Z" /><path d="M2 49 L2 51 L12 51 L12 49 Z" /><path d="M8.931 25.134 L7.931 26.866 L16.591 31.866 L17.591 30.134 Z" /><path d="M26.866 7.931 L25.134 8.931 L30.134 17.591 L31.866 16.591 Z" /><path d="M51 2 L49 2 L49 12 L51 12 Z" /><path d="M74.866 8.931 L73.134 7.931 L68.134 16.591 L69.866 17.591 Z" /><path d="M92.069 26.866 L91.069 25.134 L82.409 30.134 L83.409 31.866 Z" /><path d="M98 51 L98 49 L88 49 L88 51 Z" /><path d="M91.069 74.866 L92.069 73.134 L83.409 68.134 L82.409 69.866 Z" /><path d="M73.134 92.069 L74.866 91.069 L69.866 82.409 L68.134 83.409 Z" /><polygon id="hour" points="47,25 53,25 53,60 47,60" fill="#000000"><animateTransform  attributeName="transform"  attributeType="XML"  type="rotate"  from="0 50 50"  to="360 50 50"  dur="43200s"  begin="0" repeatCount="indefinite" /></polygon><polygon id="minute" points="48,10 52,10 52,60 48,60" fill="#000000"><animateTransform  attributeName="transform"  attributeType="XML"  type="rotate"  from="0 50 50"  to="360 50 50"  dur="3600s"  begin="0" repeatCount="indefinite" /></polygon><g id="second"><polygon points="49,10 51,10 51,60 49,60" fill="#ff0000"></polygon><circle cx="50" cy="15" r="5" fill="#ff0000"></circle><animateTransform  attributeName="transform"  attributeType="XML"  type="rotate"  from="0 50 50"  to="360 50 50"  dur="60s"  begin="0" calcMode="discrete" values="0 50 50; 6 50 50; 12 50 50; 18 50 50; 24 50 50; 30 50 50; 36 50 50; 42 50 50; 48 50 50; 54 50 50; 60 50 50; 66 50 50; 72 50 50; 78 50 50; 84 50 50; 90 50 50; 96 50 50; 102 50 50; 108 50 50; 114 50 50; 120 50 50; 126 50 50; 132 50 50; 138 50 50; 144 50 50; 150 50 50; 156 50 50; 162 50 50; 168 50 50; 174 50 50; 180 50 50; 186 50 50; 192 50 50; 198 50 50; 204 50 50; 210 50 50; 216 50 50; 222 50 50; 228 50 50; 234 50 50; 240 50 50; 246 50 50; 252 50 50; 258 50 50; 264 50 50; 270 50 50; 276 50 50; 282 50 50; 288 50 50; 294 50 50; 300 50 50; 306 50 50; 312 50 50; 318 50 50; 324 50 50; 330 50 50; 336 50 50; 342 50 50; 348 50 50; 354 50 50; 360 50 50;" repeatCount="indefinite" /></g><circle cx="50" cy="50" r="3" fill="#ff0000"></circle><script type="text/javascript" ><![CDATA[ time = new Date(); document.getElementById('hour').getElementsByTagName('animateTransform')[0].setAttribute('begin', -(time.getHours() % 12 * 3600 + time.getMinutes()*60 + time.getSeconds())); document.getElementById('minute').getElementsByTagName('animateTransform')[0].setAttribute('begin', -time.getMinutes()*60-time.getSeconds()); document.getElementById('second').getElementsByTagName('animateTransform')[0].setAttribute('begin', -time.getSeconds()); ]]></script></svg>
